<?xml version="1.0" encoding="UTF-8"?>
<svg xmlns="http://www.w3.org/2000/svg" xmlns:xlink="http://www.w3.org/1999/xlink" width="2000" height="2000" viewBox="0 0 2000 2000">
<defs>
<clipPath id="clip-0">

</clipPath>
<clipPath id="clip-1">
<path clip-rule="nonzero" d="M 557.171875 781.039062 C 557.171875 739.089844 591.175781 705.089844 633.125 705.089844 C 675.074219 705.089844 709.078125 739.089844 709.078125 781.039062 L 709.078125 846.679688 L 557.171875 846.679688 Z M 893.042969 1293.378906 L 800.84375 1293.378906 C 687.753906 1293.378906 596.078125 1201.699219 596.078125 1088.609375 C 596.078125 975.519531 687.753906 883.839844 800.84375 883.839844 L 857.066406 883.839844 L 853.804688 846.679688 L 746.269531 846.679688 L 746.269531 782.601562 C 746.269531 720.109375 695.613281 669.460938 633.125 669.460938 C 570.636719 669.460938 519.980469 720.109375 519.980469 782.601562 L 519.980469 846.679688 L 412.445312 846.679688 L 369.941406 1330.539062 L 896.308594 1330.539062 Z M 893.042969 1293.378906 "/>
</clipPath>
<clipPath id="clip-2">
<path clip-rule="nonzero" d="M 557.171875 781.039062 C 557.171875 739.089844 591.175781 705.089844 633.125 705.089844 C 675.074219 705.089844 709.078125 739.089844 709.078125 781.039062 L 709.078125 846.679688 L 557.171875 846.679688 Z M 893.042969 1293.378906 L 800.84375 1293.378906 C 687.753906 1293.378906 596.078125 1201.699219 596.078125 1088.609375 C 596.078125 975.519531 687.753906 883.839844 800.84375 883.839844 L 857.066406 883.839844 L 853.804688 846.679688 L 746.269531 846.679688 L 746.269531 782.601562 C 746.269531 720.109375 695.613281 669.460938 633.125 669.460938 C 570.636719 669.460938 519.980469 720.109375 519.980469 782.601562 L 519.980469 846.679688 L 412.445312 846.679688 L 369.941406 1330.539062 L 896.308594 1330.539062 L 893.042969 1293.378906 "/>
</clipPath>
<radialGradient id="radial-pattern-0" gradientUnits="userSpaceOnUse" cx="0" cy="0" fx="0" fy="0" r="876.503661" gradientTransform="matrix(0.533993, 0.845489, -0.845489, 0.533993, 264.846, 636.08)">
<stop offset="0" stop-color="rgb(94.7052%, 69.010925%, 5.11322%)" stop-opacity="1"/>
<stop offset="0.00390625" stop-color="rgb(94.703674%, 68.82019%, 5.169678%)" stop-opacity="1"/>
<stop offset="0.0078125" stop-color="rgb(94.702148%, 68.629456%, 5.229187%)" stop-opacity="1"/>
<stop offset="0.0117188" stop-color="rgb(94.700623%, 68.438721%, 5.285645%)" stop-opacity="1"/>
<stop offset="0.015625" stop-color="rgb(94.697571%, 68.247986%, 5.343628%)" stop-opacity="1"/>
<stop offset="0.0195312" stop-color="rgb(94.696045%, 68.055725%, 5.401611%)" stop-opacity="1"/>
<stop offset="0.0234375" stop-color="rgb(94.694519%, 67.86499%, 5.459595%)" stop-opacity="1"/>
<stop offset="0.0273438" stop-color="rgb(94.692993%, 67.674255%, 5.516052%)" stop-opacity="1"/>
<stop offset="0.03125" stop-color="rgb(94.689941%, 67.481995%, 5.574036%)" stop-opacity="1"/>
<stop offset="0.0351562" stop-color="rgb(94.68689%, 67.29126%, 5.632019%)" stop-opacity="1"/>
<stop offset="0.0390625" stop-color="rgb(94.683838%, 67.098999%, 5.688477%)" stop-opacity="1"/>
<stop offset="0.0429688" stop-color="rgb(94.682312%, 66.906738%, 5.74646%)" stop-opacity="1"/>
<stop offset="0.046875" stop-color="rgb(94.680786%, 66.716003%, 5.802917%)" stop-opacity="1"/>
<stop offset="0.0507812" stop-color="rgb(94.677734%, 66.523743%, 5.859375%)" stop-opacity="1"/>
<stop offset="0.0546875" stop-color="rgb(94.676208%, 66.333008%, 5.917358%)" stop-opacity="1"/>
<stop offset="0.0585938" stop-color="rgb(94.674683%, 66.140747%, 5.973816%)" stop-opacity="1"/>
<stop offset="0.0625" stop-color="rgb(94.670105%, 65.948486%, 6.030273%)" stop-opacity="1"/>
<stop offset="0.0664062" stop-color="rgb(94.668579%, 65.757751%, 6.086731%)" stop-opacity="1"/>
<stop offset="0.0703125" stop-color="rgb(94.667053%, 65.563965%, 6.143188%)" stop-opacity="1"/>
<stop offset="0.0742188" stop-color="rgb(94.664001%, 65.37323%, 6.201172%)" stop-opacity="1"/>
<stop offset="0.078125" stop-color="rgb(94.66095%, 65.180969%, 6.256104%)" stop-opacity="1"/>
<stop offset="0.0820312" stop-color="rgb(94.659424%, 64.987183%, 6.312561%)" stop-opacity="1"/>
<stop offset="0.0859375" stop-color="rgb(94.656372%, 64.796448%, 6.369019%)" stop-opacity="1"/>
<stop offset="0.0898438" stop-color="rgb(94.654846%, 64.604187%, 6.425476%)" stop-opacity="1"/>
<stop offset="0.09375" stop-color="rgb(94.65332%, 64.411926%, 6.480408%)" stop-opacity="1"/>
<stop offset="0.0976562" stop-color="rgb(94.648743%, 64.219666%, 6.538391%)" stop-opacity="1"/>
<stop offset="0.101562" stop-color="rgb(94.647217%, 64.027405%, 6.593323%)" stop-opacity="1"/>
<stop offset="0.105469" stop-color="rgb(94.644165%, 63.835144%, 6.648254%)" stop-opacity="1"/>
<stop offset="0.109375" stop-color="rgb(94.642639%, 63.642883%, 6.704712%)" stop-opacity="1"/>
<stop offset="0.113281" stop-color="rgb(94.639587%, 63.450623%, 6.759644%)" stop-opacity="1"/>
<stop offset="0.117188" stop-color="rgb(94.636536%, 63.256836%, 6.814575%)" stop-opacity="1"/>
<stop offset="0.121094" stop-color="rgb(94.633484%, 63.064575%, 6.871033%)" stop-opacity="1"/>
<stop offset="0.125" stop-color="rgb(94.631958%, 62.872314%, 6.925964%)" stop-opacity="1"/>
<stop offset="0.128906" stop-color="rgb(94.62738%, 62.678528%, 6.980896%)" stop-opacity="1"/>
<stop offset="0.132812" stop-color="rgb(94.625854%, 62.486267%, 7.037354%)" stop-opacity="1"/>
<stop offset="0.136719" stop-color="rgb(94.622803%, 62.294006%, 7.092285%)" stop-opacity="1"/>
<stop offset="0.140625" stop-color="rgb(94.621277%, 62.10022%, 7.148743%)" stop-opacity="1"/>
<stop offset="0.144531" stop-color="rgb(94.618225%, 61.907959%, 7.202148%)" stop-opacity="1"/>
<stop offset="0.148438" stop-color="rgb(94.616699%, 61.714172%, 7.25708%)" stop-opacity="1"/>
<stop offset="0.152344" stop-color="rgb(94.613647%, 61.521912%, 7.312012%)" stop-opacity="1"/>
<stop offset="0.15625" stop-color="rgb(94.60907%, 61.328125%, 7.366943%)" stop-opacity="1"/>
<stop offset="0.160156" stop-color="rgb(94.607544%, 61.134338%, 7.420349%)" stop-opacity="1"/>
<stop offset="0.164062" stop-color="rgb(94.602966%, 60.942078%, 7.476807%)" stop-opacity="1"/>
<stop offset="0.167969" stop-color="rgb(94.60144%, 60.748291%, 7.530212%)" stop-opacity="1"/>
<stop offset="0.171875" stop-color="rgb(94.598389%, 60.55603%, 7.585144%)" stop-opacity="1"/>
<stop offset="0.175781" stop-color="rgb(94.595337%, 60.362244%, 7.640076%)" stop-opacity="1"/>
<stop offset="0.179688" stop-color="rgb(94.593811%, 60.168457%, 7.693481%)" stop-opacity="1"/>
<stop offset="0.183594" stop-color="rgb(94.590759%, 59.976196%, 7.746887%)" stop-opacity="1"/>
<stop offset="0.1875" stop-color="rgb(94.587708%, 59.78241%, 7.801819%)" stop-opacity="1"/>
<stop offset="0.191406" stop-color="rgb(94.584656%, 59.588623%, 7.855225%)" stop-opacity="1"/>
<stop offset="0.195312" stop-color="rgb(94.580078%, 59.394836%, 7.90863%)" stop-opacity="1"/>
<stop offset="0.199219" stop-color="rgb(94.577026%, 59.199524%, 7.963562%)" stop-opacity="1"/>
<stop offset="0.203125" stop-color="rgb(94.573975%, 59.007263%, 8.016968%)" stop-opacity="1"/>
<stop offset="0.207031" stop-color="rgb(94.572449%, 58.813477%, 8.070374%)" stop-opacity="1"/>
<stop offset="0.210938" stop-color="rgb(94.569397%, 58.61969%, 8.123779%)" stop-opacity="1"/>
<stop offset="0.214844" stop-color="rgb(94.566345%, 58.425903%, 8.177185%)" stop-opacity="1"/>
<stop offset="0.21875" stop-color="rgb(94.563293%, 58.232117%, 8.230591%)" stop-opacity="1"/>
<stop offset="0.222656" stop-color="rgb(94.560242%, 58.03833%, 8.283997%)" stop-opacity="1"/>
<stop offset="0.226562" stop-color="rgb(94.55719%, 57.844543%, 8.337402%)" stop-opacity="1"/>
<stop offset="0.230469" stop-color="rgb(94.554138%, 57.650757%, 8.390808%)" stop-opacity="1"/>
<stop offset="0.234375" stop-color="rgb(94.549561%, 57.455444%, 8.442688%)" stop-opacity="1"/>
<stop offset="0.238281" stop-color="rgb(94.546509%, 57.260132%, 8.496094%)" stop-opacity="1"/>
<stop offset="0.242188" stop-color="rgb(94.543457%, 57.066345%, 8.5495%)" stop-opacity="1"/>
<stop offset="0.246094" stop-color="rgb(94.540405%, 56.872559%, 8.601379%)" stop-opacity="1"/>
<stop offset="0.25" stop-color="rgb(94.537354%, 56.678772%, 8.653259%)" stop-opacity="1"/>
<stop offset="0.253906" stop-color="rgb(94.534302%, 56.483459%, 8.706665%)" stop-opacity="1"/>
<stop offset="0.257812" stop-color="rgb(94.53125%, 56.289673%, 8.760071%)" stop-opacity="1"/>
<stop offset="0.261719" stop-color="rgb(94.529724%, 56.095886%, 8.811951%)" stop-opacity="1"/>
<stop offset="0.265625" stop-color="rgb(94.525146%, 55.900574%, 8.865356%)" stop-opacity="1"/>
<stop offset="0.269531" stop-color="rgb(94.520569%, 55.705261%, 8.91571%)" stop-opacity="1"/>
<stop offset="0.273438" stop-color="rgb(94.517517%, 55.509949%, 8.96759%)" stop-opacity="1"/>
<stop offset="0.277344" stop-color="rgb(94.514465%, 55.316162%, 9.020996%)" stop-opacity="1"/>
<stop offset="0.28125" stop-color="rgb(94.511414%, 55.12085%, 9.072876%)" stop-opacity="1"/>
<stop offset="0.285156" stop-color="rgb(94.508362%, 54.925537%, 9.124756%)" stop-opacity="1"/>
<stop offset="0.289062" stop-color="rgb(94.50531%, 54.73175%, 9.176636%)" stop-opacity="1"/>
<stop offset="0.292969" stop-color="rgb(94.502258%, 54.536438%, 9.228516%)" stop-opacity="1"/>
<stop offset="0.296875" stop-color="rgb(94.497681%, 54.341125%, 9.280396%)" stop-opacity="1"/>
<stop offset="0.300781" stop-color="rgb(94.494629%, 54.147339%, 9.332275%)" stop-opacity="1"/>
<stop offset="0.304688" stop-color="rgb(94.491577%, 53.952026%, 9.382629%)" stop-opacity="1"/>
<stop offset="0.308594" stop-color="rgb(94.487%, 53.756714%, 9.434509%)" stop-opacity="1"/>
<stop offset="0.3125" stop-color="rgb(94.483948%, 53.561401%, 9.484863%)" stop-opacity="1"/>
<stop offset="0.316406" stop-color="rgb(94.47937%, 53.364563%, 9.536743%)" stop-opacity="1"/>
<stop offset="0.320312" stop-color="rgb(94.476318%, 53.170776%, 9.588623%)" stop-opacity="1"/>
<stop offset="0.324219" stop-color="rgb(94.473267%, 52.975464%, 9.638977%)" stop-opacity="1"/>
<stop offset="0.328125" stop-color="rgb(94.470215%, 52.780151%, 9.689331%)" stop-opacity="1"/>
<stop offset="0.332031" stop-color="rgb(94.465637%, 52.584839%, 9.741211%)" stop-opacity="1"/>
<stop offset="0.335938" stop-color="rgb(94.462585%, 52.388%, 9.791565%)" stop-opacity="1"/>
<stop offset="0.339844" stop-color="rgb(94.459534%, 52.194214%, 9.841919%)" stop-opacity="1"/>
<stop offset="0.34375" stop-color="rgb(94.454956%, 51.997375%, 9.893799%)" stop-opacity="1"/>
<stop offset="0.347656" stop-color="rgb(94.450378%, 51.802063%, 9.942627%)" stop-opacity="1"/>
<stop offset="0.351562" stop-color="rgb(94.447327%, 51.605225%, 9.994507%)" stop-opacity="1"/>
<stop offset="0.355469" stop-color="rgb(94.444275%, 51.409912%, 10.044861%)" stop-opacity="1"/>
<stop offset="0.359375" stop-color="rgb(94.441223%, 51.2146%, 10.093689%)" stop-opacity="1"/>
<stop offset="0.363281" stop-color="rgb(94.43512%, 51.017761%, 10.145569%)" stop-opacity="1"/>
<stop offset="0.367188" stop-color="rgb(94.432068%, 50.822449%, 10.194397%)" stop-opacity="1"/>
<stop offset="0.371094" stop-color="rgb(94.429016%, 50.627136%, 10.244751%)" stop-opacity="1"/>
<stop offset="0.375" stop-color="rgb(94.424438%, 50.430298%, 10.295105%)" stop-opacity="1"/>
<stop offset="0.378906" stop-color="rgb(94.421387%, 50.234985%, 10.345459%)" stop-opacity="1"/>
<stop offset="0.382812" stop-color="rgb(94.418335%, 50.038147%, 10.394287%)" stop-opacity="1"/>
<stop offset="0.386719" stop-color="rgb(94.413757%, 49.842834%, 10.444641%)" stop-opacity="1"/>
<stop offset="0.390625" stop-color="rgb(94.40918%, 49.645996%, 10.493469%)" stop-opacity="1"/>
<stop offset="0.394531" stop-color="rgb(94.406128%, 49.449158%, 10.542297%)" stop-opacity="1"/>
<stop offset="0.398438" stop-color="rgb(94.40155%, 49.253845%, 10.592651%)" stop-opacity="1"/>
<stop offset="0.402344" stop-color="rgb(94.396973%, 49.055481%, 10.641479%)" stop-opacity="1"/>
<stop offset="0.40625" stop-color="rgb(94.393921%, 48.860168%, 10.690308%)" stop-opacity="1"/>
<stop offset="0.410156" stop-color="rgb(94.389343%, 48.66333%, 10.740662%)" stop-opacity="1"/>
<stop offset="0.414062" stop-color="rgb(94.386292%, 48.466492%, 10.78949%)" stop-opacity="1"/>
<stop offset="0.417969" stop-color="rgb(94.38324%, 48.271179%, 10.838318%)" stop-opacity="1"/>
<stop offset="0.421875" stop-color="rgb(94.378662%, 48.074341%, 10.887146%)" stop-opacity="1"/>
<stop offset="0.425781" stop-color="rgb(94.374084%, 47.877502%, 10.935974%)" stop-opacity="1"/>
<stop offset="0.429688" stop-color="rgb(94.367981%, 47.679138%, 10.984802%)" stop-opacity="1"/>
<stop offset="0.433594" stop-color="rgb(94.364929%, 47.4823%, 11.03363%)" stop-opacity="1"/>
<stop offset="0.4375" stop-color="rgb(94.360352%, 47.286987%, 11.082458%)" stop-opacity="1"/>
<stop offset="0.441406" stop-color="rgb(94.3573%, 47.088623%, 11.131287%)" stop-opacity="1"/>
<stop offset="0.445312" stop-color="rgb(94.352722%, 46.893311%, 11.178589%)" stop-opacity="1"/>
<stop offset="0.449219" stop-color="rgb(94.34967%, 46.694946%, 11.227417%)" stop-opacity="1"/>
<stop offset="0.453125" stop-color="rgb(94.345093%, 46.498108%, 11.276245%)" stop-opacity="1"/>
<stop offset="0.457031" stop-color="rgb(94.342041%, 46.30127%, 11.323547%)" stop-opacity="1"/>
<stop offset="0.460938" stop-color="rgb(94.337463%, 46.104431%, 11.37085%)" stop-opacity="1"/>
<stop offset="0.464844" stop-color="rgb(94.33136%, 45.906067%, 11.419678%)" stop-opacity="1"/>
<stop offset="0.46875" stop-color="rgb(94.326782%, 45.709229%, 11.46698%)" stop-opacity="1"/>
<stop offset="0.472656" stop-color="rgb(94.32373%, 45.510864%, 11.514282%)" stop-opacity="1"/>
<stop offset="0.476562" stop-color="rgb(94.319153%, 45.314026%, 11.56311%)" stop-opacity="1"/>
<stop offset="0.480469" stop-color="rgb(94.314575%, 45.115662%, 11.610413%)" stop-opacity="1"/>
<stop offset="0.484375" stop-color="rgb(94.311523%, 44.920349%, 11.657715%)" stop-opacity="1"/>
<stop offset="0.488281" stop-color="rgb(94.306946%, 44.721985%, 11.705017%)" stop-opacity="1"/>
<stop offset="0.492188" stop-color="rgb(94.302368%, 44.523621%, 11.752319%)" stop-opacity="1"/>
<stop offset="0.496094" stop-color="rgb(94.297791%, 44.326782%, 11.801147%)" stop-opacity="1"/>
<stop offset="0.5" stop-color="rgb(94.291687%, 44.128418%, 11.846924%)" stop-opacity="1"/>
<stop offset="0.503906" stop-color="rgb(94.288635%, 43.93158%, 11.894226%)" stop-opacity="1"/>
<stop offset="0.507812" stop-color="rgb(94.284058%, 43.733215%, 11.941528%)" stop-opacity="1"/>
<stop offset="0.511719" stop-color="rgb(94.27948%, 43.534851%, 11.988831%)" stop-opacity="1"/>
<stop offset="0.515625" stop-color="rgb(94.274902%, 43.336487%, 12.034607%)" stop-opacity="1"/>
<stop offset="0.519531" stop-color="rgb(94.271851%, 43.138123%, 12.081909%)" stop-opacity="1"/>
<stop offset="0.523438" stop-color="rgb(94.267273%, 42.941284%, 12.127686%)" stop-opacity="1"/>
<stop offset="0.527344" stop-color="rgb(94.262695%, 42.74292%, 12.174988%)" stop-opacity="1"/>
<stop offset="0.53125" stop-color="rgb(94.256592%, 42.544556%, 12.22229%)" stop-opacity="1"/>
<stop offset="0.535156" stop-color="rgb(94.25354%, 42.346191%, 12.268066%)" stop-opacity="1"/>
<stop offset="0.539062" stop-color="rgb(94.247437%, 42.147827%, 12.313843%)" stop-opacity="1"/>
<stop offset="0.542969" stop-color="rgb(94.242859%, 41.949463%, 12.361145%)" stop-opacity="1"/>
<stop offset="0.546875" stop-color="rgb(94.238281%, 41.751099%, 12.406921%)" stop-opacity="1"/>
<stop offset="0.550781" stop-color="rgb(94.233704%, 41.552734%, 12.452698%)" stop-opacity="1"/>
<stop offset="0.554688" stop-color="rgb(94.230652%, 41.35437%, 12.498474%)" stop-opacity="1"/>
<stop offset="0.558594" stop-color="rgb(94.226074%, 41.156006%, 12.54425%)" stop-opacity="1"/>
<stop offset="0.5625" stop-color="rgb(94.219971%, 40.957642%, 12.590027%)" stop-opacity="1"/>
<stop offset="0.566406" stop-color="rgb(94.215393%, 40.757751%, 12.635803%)" stop-opacity="1"/>
<stop offset="0.570312" stop-color="rgb(94.210815%, 40.559387%, 12.68158%)" stop-opacity="1"/>
<stop offset="0.574219" stop-color="rgb(94.206238%, 40.361023%, 12.727356%)" stop-opacity="1"/>
<stop offset="0.578125" stop-color="rgb(94.200134%, 40.161133%, 12.773132%)" stop-opacity="1"/>
<stop offset="0.582031" stop-color="rgb(94.195557%, 39.962769%, 12.817383%)" stop-opacity="1"/>
<stop offset="0.585938" stop-color="rgb(94.190979%, 39.764404%, 12.863159%)" stop-opacity="1"/>
<stop offset="0.589844" stop-color="rgb(94.186401%, 39.564514%, 12.90741%)" stop-opacity="1"/>
<stop offset="0.59375" stop-color="rgb(94.181824%, 39.36615%, 12.953186%)" stop-opacity="1"/>
<stop offset="0.597656" stop-color="rgb(94.177246%, 39.16626%, 12.998962%)" stop-opacity="1"/>
<stop offset="0.601562" stop-color="rgb(94.172668%, 38.967896%, 13.043213%)" stop-opacity="1"/>
<stop offset="0.605469" stop-color="rgb(94.168091%, 38.768005%, 13.087463%)" stop-opacity="1"/>
<stop offset="0.609375" stop-color="rgb(94.163513%, 38.568115%, 13.13324%)" stop-opacity="1"/>
<stop offset="0.613281" stop-color="rgb(94.15741%, 38.369751%, 13.17749%)" stop-opacity="1"/>
<stop offset="0.617188" stop-color="rgb(94.152832%, 38.169861%, 13.221741%)" stop-opacity="1"/>
<stop offset="0.621094" stop-color="rgb(94.148254%, 37.971497%, 13.265991%)" stop-opacity="1"/>
<stop offset="0.625" stop-color="rgb(94.142151%, 37.771606%, 13.310242%)" stop-opacity="1"/>
<stop offset="0.628906" stop-color="rgb(94.137573%, 37.571716%, 13.356018%)" stop-opacity="1"/>
<stop offset="0.632812" stop-color="rgb(94.13147%, 37.373352%, 13.398743%)" stop-opacity="1"/>
<stop offset="0.636719" stop-color="rgb(94.126892%, 37.171936%, 13.442993%)" stop-opacity="1"/>
<stop offset="0.640625" stop-color="rgb(94.122314%, 36.973572%, 13.487244%)" stop-opacity="1"/>
<stop offset="0.644531" stop-color="rgb(94.117737%, 36.773682%, 13.531494%)" stop-opacity="1"/>
<stop offset="0.648438" stop-color="rgb(94.113159%, 36.573792%, 13.575745%)" stop-opacity="1"/>
<stop offset="0.652344" stop-color="rgb(94.108582%, 36.373901%, 13.619995%)" stop-opacity="1"/>
<stop offset="0.65625" stop-color="rgb(94.102478%, 36.174011%, 13.66272%)" stop-opacity="1"/>
<stop offset="0.660156" stop-color="rgb(94.096375%, 35.974121%, 13.705444%)" stop-opacity="1"/>
<stop offset="0.664062" stop-color="rgb(94.090271%, 35.774231%, 13.749695%)" stop-opacity="1"/>
<stop offset="0.667969" stop-color="rgb(94.085693%, 35.572815%, 13.793945%)" stop-opacity="1"/>
<stop offset="0.671875" stop-color="rgb(94.081116%, 35.374451%, 13.83667%)" stop-opacity="1"/>
<stop offset="0.675781" stop-color="rgb(94.076538%, 35.173035%, 13.879395%)" stop-opacity="1"/>
<stop offset="0.679688" stop-color="rgb(94.070435%, 34.97467%, 13.922119%)" stop-opacity="1"/>
<stop offset="0.683594" stop-color="rgb(94.065857%, 34.773254%, 13.96637%)" stop-opacity="1"/>
<stop offset="0.6875" stop-color="rgb(94.061279%, 34.571838%, 14.009094%)" stop-opacity="1"/>
<stop offset="0.691406" stop-color="rgb(94.056702%, 34.373474%, 14.051819%)" stop-opacity="1"/>
<stop offset="0.695312" stop-color="rgb(94.049072%, 34.172058%, 14.094543%)" stop-opacity="1"/>
<stop offset="0.699219" stop-color="rgb(94.042969%, 33.972168%, 14.137268%)" stop-opacity="1"/>
<stop offset="0.703125" stop-color="rgb(94.038391%, 33.770752%, 14.179993%)" stop-opacity="1"/>
<stop offset="0.707031" stop-color="rgb(94.033813%, 33.569336%, 14.222717%)" stop-opacity="1"/>
<stop offset="0.710938" stop-color="rgb(94.02771%, 33.369446%, 14.265442%)" stop-opacity="1"/>
<stop offset="0.714844" stop-color="rgb(94.023132%, 33.16803%, 14.306641%)" stop-opacity="1"/>
<stop offset="0.71875" stop-color="rgb(94.018555%, 32.96814%, 14.349365%)" stop-opacity="1"/>
<stop offset="0.722656" stop-color="rgb(94.012451%, 32.766724%, 14.39209%)" stop-opacity="1"/>
<stop offset="0.726562" stop-color="rgb(94.007874%, 32.566833%, 14.433289%)" stop-opacity="1"/>
<stop offset="0.730469" stop-color="rgb(94.000244%, 32.365417%, 14.476013%)" stop-opacity="1"/>
<stop offset="0.734375" stop-color="rgb(93.994141%, 32.164001%, 14.517212%)" stop-opacity="1"/>
<stop offset="0.738281" stop-color="rgb(93.989563%, 31.964111%, 14.559937%)" stop-opacity="1"/>
<stop offset="0.742188" stop-color="rgb(93.983459%, 31.762695%, 14.601135%)" stop-opacity="1"/>
<stop offset="0.746094" stop-color="rgb(93.978882%, 31.561279%, 14.64386%)" stop-opacity="1"/>
<stop offset="0.75" stop-color="rgb(93.972778%, 31.359863%, 14.685059%)" stop-opacity="1"/>
<stop offset="0.753906" stop-color="rgb(93.968201%, 31.158447%, 14.726257%)" stop-opacity="1"/>
<stop offset="0.757812" stop-color="rgb(93.962097%, 30.958557%, 14.767456%)" stop-opacity="1"/>
<stop offset="0.761719" stop-color="rgb(93.95752%, 30.755615%, 14.808655%)" stop-opacity="1"/>
<stop offset="0.765625" stop-color="rgb(93.951416%, 30.554199%, 14.849854%)" stop-opacity="1"/>
<stop offset="0.769531" stop-color="rgb(93.943787%, 30.352783%, 14.891052%)" stop-opacity="1"/>
<stop offset="0.773438" stop-color="rgb(93.939209%, 30.151367%, 14.932251%)" stop-opacity="1"/>
<stop offset="0.777344" stop-color="rgb(93.933105%, 29.949951%, 14.97345%)" stop-opacity="1"/>
<stop offset="0.78125" stop-color="rgb(93.928528%, 29.748535%, 15.014648%)" stop-opacity="1"/>
<stop offset="0.785156" stop-color="rgb(93.922424%, 29.545593%, 15.055847%)" stop-opacity="1"/>
<stop offset="0.789062" stop-color="rgb(93.916321%, 29.345703%, 15.09552%)" stop-opacity="1"/>
<stop offset="0.792969" stop-color="rgb(93.911743%, 29.142761%, 15.136719%)" stop-opacity="1"/>
<stop offset="0.796875" stop-color="rgb(93.904114%, 28.941345%, 15.177917%)" stop-opacity="1"/>
<stop offset="0.800781" stop-color="rgb(93.899536%, 28.739929%, 15.21759%)" stop-opacity="1"/>
<stop offset="0.804688" stop-color="rgb(93.893433%, 28.536987%, 15.257263%)" stop-opacity="1"/>
<stop offset="0.808594" stop-color="rgb(93.887329%, 28.335571%, 15.298462%)" stop-opacity="1"/>
<stop offset="0.8125" stop-color="rgb(93.881226%, 28.132629%, 15.338135%)" stop-opacity="1"/>
<stop offset="0.816406" stop-color="rgb(93.875122%, 27.931213%, 15.377808%)" stop-opacity="1"/>
<stop offset="0.820312" stop-color="rgb(93.870544%, 27.729797%, 15.41748%)" stop-opacity="1"/>
<stop offset="0.824219" stop-color="rgb(93.864441%, 27.526855%, 15.457153%)" stop-opacity="1"/>
<stop offset="0.828125" stop-color="rgb(93.858337%, 27.325439%, 15.496826%)" stop-opacity="1"/>
<stop offset="0.832031" stop-color="rgb(93.852234%, 27.122498%, 15.538025%)" stop-opacity="1"/>
<stop offset="0.835938" stop-color="rgb(93.84613%, 26.921082%, 15.577698%)" stop-opacity="1"/>
<stop offset="0.839844" stop-color="rgb(93.840027%, 26.71814%, 15.617371%)" stop-opacity="1"/>
<stop offset="0.84375" stop-color="rgb(93.833923%, 26.515198%, 15.657043%)" stop-opacity="1"/>
<stop offset="0.847656" stop-color="rgb(93.82782%, 26.312256%, 15.69519%)" stop-opacity="1"/>
<stop offset="0.851562" stop-color="rgb(93.821716%, 26.109314%, 15.734863%)" stop-opacity="1"/>
<stop offset="0.855469" stop-color="rgb(93.815613%, 25.907898%, 15.774536%)" stop-opacity="1"/>
<stop offset="0.859375" stop-color="rgb(93.809509%, 25.704956%, 15.812683%)" stop-opacity="1"/>
<stop offset="0.863281" stop-color="rgb(93.803406%, 25.502014%, 15.852356%)" stop-opacity="1"/>
<stop offset="0.867188" stop-color="rgb(93.797302%, 25.299072%, 15.890503%)" stop-opacity="1"/>
<stop offset="0.871094" stop-color="rgb(93.791199%, 25.09613%, 15.930176%)" stop-opacity="1"/>
<stop offset="0.875" stop-color="rgb(93.785095%, 24.893188%, 15.968323%)" stop-opacity="1"/>
<stop offset="0.878906" stop-color="rgb(93.778992%, 24.690247%, 16.007996%)" stop-opacity="1"/>
<stop offset="0.882812" stop-color="rgb(93.772888%, 24.487305%, 16.046143%)" stop-opacity="1"/>
<stop offset="0.886719" stop-color="rgb(93.766785%, 24.284363%, 16.08429%)" stop-opacity="1"/>
<stop offset="0.890625" stop-color="rgb(93.760681%, 24.081421%, 16.122437%)" stop-opacity="1"/>
<stop offset="0.894531" stop-color="rgb(93.754578%, 23.878479%, 16.160583%)" stop-opacity="1"/>
<stop offset="0.898438" stop-color="rgb(93.746948%, 23.674011%, 16.19873%)" stop-opacity="1"/>
<stop offset="0.902344" stop-color="rgb(93.740845%, 23.471069%, 16.236877%)" stop-opacity="1"/>
<stop offset="0.90625" stop-color="rgb(93.734741%, 23.268127%, 16.275024%)" stop-opacity="1"/>
<stop offset="0.910156" stop-color="rgb(93.728638%, 23.06366%, 16.313171%)" stop-opacity="1"/>
<stop offset="0.914062" stop-color="rgb(93.722534%, 22.862244%, 16.351318%)" stop-opacity="1"/>
<stop offset="0.917969" stop-color="rgb(93.716431%, 22.657776%, 16.389465%)" stop-opacity="1"/>
<stop offset="0.921875" stop-color="rgb(93.710327%, 22.453308%, 16.426086%)" stop-opacity="1"/>
<stop offset="0.925781" stop-color="rgb(93.702698%, 22.250366%, 16.464233%)" stop-opacity="1"/>
<stop offset="0.929688" stop-color="rgb(93.696594%, 22.045898%, 16.50238%)" stop-opacity="1"/>
<stop offset="0.933594" stop-color="rgb(93.690491%, 21.842957%, 16.539001%)" stop-opacity="1"/>
<stop offset="0.9375" stop-color="rgb(93.684387%, 21.638489%, 16.575623%)" stop-opacity="1"/>
<stop offset="0.941406" stop-color="rgb(93.676758%, 21.435547%, 16.61377%)" stop-opacity="1"/>
<stop offset="0.945312" stop-color="rgb(93.670654%, 21.231079%, 16.650391%)" stop-opacity="1"/>
<stop offset="0.949219" stop-color="rgb(93.664551%, 21.026611%, 16.687012%)" stop-opacity="1"/>
<stop offset="0.953125" stop-color="rgb(93.658447%, 20.823669%, 16.725159%)" stop-opacity="1"/>
<stop offset="0.957031" stop-color="rgb(93.652344%, 20.619202%, 16.76178%)" stop-opacity="1"/>
<stop offset="0.960938" stop-color="rgb(93.644714%, 20.414734%, 16.798401%)" stop-opacity="1"/>
<stop offset="0.964844" stop-color="rgb(93.637085%, 20.211792%, 16.835022%)" stop-opacity="1"/>
<stop offset="0.96875" stop-color="rgb(93.630981%, 20.007324%, 16.871643%)" stop-opacity="1"/>
<stop offset="0.972656" stop-color="rgb(93.624878%, 19.802856%, 16.908264%)" stop-opacity="1"/>
<stop offset="0.976562" stop-color="rgb(93.618774%, 19.598389%, 16.944885%)" stop-opacity="1"/>
<stop offset="0.980469" stop-color="rgb(93.611145%, 19.393921%, 16.981506%)" stop-opacity="1"/>
<stop offset="0.984375" stop-color="rgb(93.605042%, 19.189453%, 17.018127%)" stop-opacity="1"/>
<stop offset="0.988281" stop-color="rgb(93.598938%, 18.984985%, 17.053223%)" stop-opacity="1"/>
<stop offset="0.992188" stop-color="rgb(93.592834%, 18.780518%, 17.089844%)" stop-opacity="1"/>
<stop offset="0.996094" stop-color="rgb(93.585205%, 18.57605%, 17.126465%)" stop-opacity="1"/>
<stop offset="1" stop-color="rgb(93.580627%, 18.473816%, 17.14325%)" stop-opacity="1"/>
</radialGradient>
</defs>

<g clip-path="url(#clip-0)">
<g clip-path="url(#clip-1)">
<g clip-path="url(#clip-2)">
<path fill-rule="nonzero" fill="url(#radial-pattern-0)" d="M 746.214844 431.8125 L 71.472656 857.964844 L 520.035156 1568.1875 L 1194.777344 1142.035156 Z M 746.214844 431.8125 "/>
</g>
</g>
</g>
<path fill-rule="nonzero" fill="rgb(22.322083%, 20.909119%, 21.260071%)" fill-opacity="1" d="M 782.257812 1103.78125 C 782.257812 1101.359375 781.664062 1099.410156 780.480469 1097.910156 C 779.292969 1096.421875 777.683594 1095.199219 775.644531 1094.25 C 773.601562 1093.300781 771.316406 1092.53125 768.777344 1091.941406 C 766.238281 1091.339844 763.570312 1090.761719 760.773438 1090.191406 C 757.074219 1089.390625 753.539062 1088.429688 750.175781 1087.308594 C 746.808594 1086.199219 743.84375 1084.660156 741.28125 1082.691406 C 738.722656 1080.71875 736.679688 1078.21875 735.164062 1075.179688 C 733.644531 1072.148438 732.886719 1068.351562 732.886719 1063.800781 C 732.886719 1058.769531 733.765625 1054.398438 735.519531 1050.671875 C 737.273438 1046.949219 739.65625 1043.871094 742.667969 1041.429688 C 745.679688 1038.980469 749.214844 1037.160156 753.269531 1035.949219 C 757.324219 1034.738281 761.886719 1034.128906 766.964844 1034.128906 C 772.039062 1034.128906 777.136719 1034.628906 782.257812 1035.628906 C 787.382812 1036.621094 791.792969 1037.898438 795.492188 1039.46875 L 795.492188 1054.410156 C 790.558594 1052.460938 785.828125 1051.050781 781.300781 1050.179688 C 776.769531 1049.300781 772.511719 1048.859375 768.527344 1048.859375 C 762.789062 1048.859375 758.367188 1049.898438 755.261719 1051.988281 C 752.152344 1054.078125 750.601562 1057.210938 750.601562 1061.378906 C 750.601562 1063.800781 751.109375 1065.789062 752.132812 1067.359375 C 753.148438 1068.921875 754.535156 1070.210938 756.292969 1071.230469 C 758.046875 1072.25 760.0625 1073.070312 762.339844 1073.691406 C 764.617188 1074.300781 767.035156 1074.871094 769.597656 1075.398438 C 773.628906 1076.25 777.480469 1077.230469 781.15625 1078.351562 C 784.832031 1079.460938 788.09375 1081.019531 790.9375 1083.011719 C 793.785156 1085 796.035156 1087.601562 797.695312 1090.800781 C 799.355469 1094 800.1875 1098.089844 800.1875 1103.070312 C 800.1875 1108.191406 799.238281 1112.628906 797.339844 1116.371094 C 795.441406 1120.121094 792.753906 1123.210938 789.265625 1125.660156 C 785.78125 1128.101562 781.546875 1129.910156 776.566406 1131.101562 C 771.589844 1132.28125 766.132812 1132.878906 760.203125 1132.878906 C 755.035156 1132.878906 749.949219 1132.371094 744.945312 1131.351562 C 739.941406 1130.328125 735.78125 1128.890625 732.460938 1127.039062 L 732.460938 1112.320312 C 737.15625 1114.359375 741.730469 1115.839844 746.191406 1116.761719 C 750.648438 1117.691406 755.25 1118.148438 759.992188 1118.148438 C 762.742188 1118.148438 765.445312 1117.929688 768.101562 1117.46875 C 770.757812 1117.019531 773.140625 1116.25 775.253906 1115.160156 C 777.359375 1114.070312 779.058594 1112.589844 780.339844 1110.71875 C 781.617188 1108.839844 782.257812 1106.53125 782.257812 1103.78125 "/>
<path fill-rule="nonzero" fill="rgb(22.322083%, 20.909119%, 21.260071%)" fill-opacity="1" d="M 866.105469 1075.109375 L 910.214844 1075.109375 L 910.214844 1035.910156 L 927.640625 1035.910156 L 927.640625 1131.101562 L 910.214844 1131.101562 L 910.214844 1089.691406 L 866.105469 1089.691406 L 866.105469 1131.101562 L 848.675781 1131.101562 L 848.675781 1035.910156 L 866.105469 1035.910156 L 866.105469 1075.109375 "/>
<path fill-rule="nonzero" fill="rgb(22.322083%, 20.909119%, 21.260071%)" fill-opacity="1" d="M 1050.050781 1083.511719 C 1050.050781 1077.71875 1049.339844 1072.660156 1047.910156 1068.320312 C 1046.488281 1063.980469 1044.519531 1060.359375 1042.011719 1057.46875 C 1039.488281 1054.578125 1036.511719 1052.421875 1033.039062 1050.988281 C 1029.578125 1049.570312 1025.789062 1048.859375 1021.660156 1048.859375 C 1017.539062 1048.859375 1013.738281 1049.570312 1010.28125 1050.988281 C 1006.820312 1052.421875 1003.828125 1054.578125 1001.320312 1057.46875 C 998.800781 1060.359375 996.835938 1063.980469 995.410156 1068.320312 C 993.988281 1072.660156 993.277344 1077.71875 993.277344 1083.511719 C 993.277344 1089.289062 993.988281 1094.351562 995.410156 1098.691406 C 996.835938 1103.03125 998.800781 1106.640625 1001.320312 1109.511719 C 1003.828125 1112.378906 1006.820312 1114.53125 1010.28125 1115.980469 C 1013.738281 1117.429688 1017.539062 1118.148438 1021.660156 1118.148438 C 1025.789062 1118.148438 1029.578125 1117.429688 1033.039062 1115.980469 C 1036.511719 1114.53125 1039.488281 1112.378906 1042.011719 1109.511719 C 1044.519531 1106.640625 1046.488281 1103.03125 1047.910156 1098.691406 C 1049.339844 1094.351562 1050.050781 1089.289062 1050.050781 1083.511719 Z M 1068.050781 1083.511719 C 1068.050781 1090.761719 1067.011719 1097.410156 1064.949219 1103.460938 C 1062.890625 1109.511719 1059.878906 1114.710938 1055.921875 1119.078125 C 1051.960938 1123.441406 1047.089844 1126.828125 1041.328125 1129.25 C 1035.570312 1131.671875 1029.011719 1132.878906 1021.660156 1132.878906 C 1014.308594 1132.878906 1007.75 1131.671875 1001.988281 1129.25 C 996.230469 1126.828125 991.367188 1123.441406 987.40625 1119.078125 C 983.445312 1114.710938 980.4375 1109.511719 978.371094 1103.460938 C 976.308594 1097.410156 975.277344 1090.761719 975.277344 1083.511719 C 975.277344 1076.25 976.308594 1069.601562 978.371094 1063.550781 C 980.4375 1057.5 983.445312 1052.300781 987.40625 1047.929688 C 991.367188 1043.570312 996.230469 1040.179688 1001.988281 1037.761719 C 1007.75 1035.339844 1014.308594 1034.128906 1021.660156 1034.128906 C 1029.011719 1034.128906 1035.570312 1035.339844 1041.328125 1037.761719 C 1047.089844 1040.179688 1051.960938 1043.570312 1055.921875 1047.929688 C 1059.878906 1052.300781 1062.890625 1057.5 1064.949219 1063.550781 C 1067.011719 1069.601562 1068.050781 1076.25 1068.050781 1083.511719 "/>
<path fill-rule="nonzero" fill="rgb(22.322083%, 20.909119%, 21.260071%)" fill-opacity="1" d="M 1133.109375 1079.238281 C 1134.109375 1079.378906 1135.378906 1079.488281 1136.921875 1079.558594 C 1138.460938 1079.628906 1140.058594 1079.660156 1141.71875 1079.660156 C 1146.410156 1079.660156 1150.351562 1079.28125 1153.53125 1078.53125 C 1156.710938 1077.769531 1159.269531 1076.710938 1161.210938 1075.359375 C 1163.160156 1074.011719 1164.558594 1072.371094 1165.410156 1070.449219 C 1166.261719 1068.53125 1166.691406 1066.429688 1166.691406 1064.148438 C 1166.691406 1061.359375 1166.050781 1058.941406 1164.769531 1056.898438 C 1163.488281 1054.859375 1161.261719 1053.269531 1158.078125 1052.128906 C 1156.421875 1051.558594 1154.371094 1051.148438 1151.929688 1050.890625 C 1149.480469 1050.628906 1146.488281 1050.5 1142.929688 1050.5 L 1133.109375 1050.5 Z M 1142 1094.25 C 1140.441406 1094.25 1138.898438 1094.21875 1137.378906 1094.179688 C 1135.859375 1094.128906 1134.441406 1094.03125 1133.109375 1093.890625 L 1133.109375 1131.101562 L 1115.679688 1131.101562 L 1115.679688 1035.910156 L 1143.140625 1035.910156 C 1147.738281 1035.910156 1151.761719 1036.109375 1155.199219 1036.519531 C 1158.640625 1036.921875 1161.710938 1037.519531 1164.410156 1038.328125 C 1170.910156 1040.320312 1175.910156 1043.5 1179.421875 1047.859375 C 1182.929688 1052.230469 1184.691406 1057.78125 1184.691406 1064.511719 C 1184.691406 1069.109375 1183.738281 1073.25 1181.839844 1076.921875 C 1179.949219 1080.601562 1177.171875 1083.71875 1173.519531 1086.28125 C 1169.871094 1088.839844 1165.410156 1090.808594 1160.140625 1092.179688 C 1154.878906 1093.558594 1148.828125 1094.25 1142 1094.25 "/>
<path fill-rule="nonzero" fill="rgb(22.322083%, 20.909119%, 21.260071%)" fill-opacity="1" d="M 1249.75 1079.238281 C 1250.75 1079.378906 1252.019531 1079.488281 1253.558594 1079.558594 C 1255.101562 1079.628906 1256.699219 1079.660156 1258.359375 1079.660156 C 1263.058594 1079.660156 1266.988281 1079.28125 1270.171875 1078.53125 C 1273.351562 1077.769531 1275.910156 1076.710938 1277.851562 1075.359375 C 1279.800781 1074.011719 1281.199219 1072.371094 1282.050781 1070.449219 C 1282.910156 1068.53125 1283.328125 1066.429688 1283.328125 1064.148438 C 1283.328125 1061.359375 1282.691406 1058.941406 1281.410156 1056.898438 C 1280.128906 1054.859375 1277.898438 1053.269531 1274.71875 1052.128906 C 1273.058594 1051.558594 1271.011719 1051.148438 1268.570312 1050.890625 C 1266.128906 1050.628906 1263.128906 1050.5 1259.570312 1050.5 L 1249.75 1050.5 Z M 1258.648438 1094.25 C 1257.078125 1094.25 1255.539062 1094.21875 1254.019531 1094.179688 C 1252.5 1094.128906 1251.078125 1094.03125 1249.75 1093.890625 L 1249.75 1131.101562 L 1232.320312 1131.101562 L 1232.320312 1035.910156 L 1259.78125 1035.910156 C 1264.378906 1035.910156 1268.398438 1036.109375 1271.839844 1036.519531 C 1275.28125 1036.921875 1278.351562 1037.519531 1281.058594 1038.328125 C 1287.550781 1040.320312 1292.558594 1043.5 1296.070312 1047.859375 C 1299.578125 1052.230469 1301.328125 1057.78125 1301.328125 1064.511719 C 1301.328125 1069.109375 1300.378906 1073.25 1298.488281 1076.921875 C 1296.589844 1080.601562 1293.808594 1083.71875 1290.160156 1086.28125 C 1286.511719 1088.839844 1282.050781 1090.808594 1276.789062 1092.179688 C 1271.519531 1093.558594 1265.480469 1094.25 1258.648438 1094.25 "/>
<path fill-rule="nonzero" fill="rgb(22.322083%, 20.909119%, 21.260071%)" fill-opacity="1" d="M 1348.96875 1131.101562 L 1348.96875 1035.910156 L 1366.398438 1035.910156 L 1366.398438 1131.101562 L 1348.96875 1131.101562 "/>
<path fill-rule="nonzero" fill="rgb(22.322083%, 20.909119%, 21.260071%)" fill-opacity="1" d="M 1467.890625 1080.160156 C 1474.71875 1089.878906 1480.261719 1098.519531 1484.53125 1106.058594 L 1484.960938 1106.058594 C 1484.390625 1093.679688 1484.109375 1084.671875 1484.109375 1079.019531 L 1484.109375 1035.910156 L 1501.539062 1035.910156 L 1501.539062 1131.101562 L 1483.25 1131.101562 L 1452.230469 1087.28125 C 1446.78125 1079.691406 1441.140625 1070.890625 1435.300781 1060.878906 L 1434.878906 1060.878906 C 1435.449219 1072.550781 1435.730469 1081.578125 1435.730469 1087.988281 L 1435.730469 1131.101562 L 1418.300781 1131.101562 L 1418.300781 1035.910156 L 1436.578125 1035.910156 L 1467.890625 1080.160156 "/>
<path fill-rule="nonzero" fill="rgb(22.322083%, 20.909119%, 21.260071%)" fill-opacity="1" d="M 1612.628906 1094.75 L 1591.289062 1094.75 L 1591.289062 1080.160156 L 1630.058594 1080.160156 L 1630.058594 1128.179688 C 1628.640625 1128.699219 1626.820312 1129.25 1624.621094 1129.820312 C 1622.410156 1130.390625 1619.941406 1130.898438 1617.21875 1131.351562 C 1614.488281 1131.800781 1611.679688 1132.171875 1608.789062 1132.449219 C 1605.890625 1132.730469 1603.019531 1132.878906 1600.179688 1132.878906 C 1591.640625 1132.878906 1584.179688 1131.730469 1577.808594 1129.429688 C 1571.429688 1127.128906 1566.109375 1123.890625 1561.871094 1119.71875 C 1557.621094 1115.539062 1554.449219 1110.570312 1552.339844 1104.808594 C 1550.230469 1099.050781 1549.171875 1092.679688 1549.171875 1085.710938 C 1549.171875 1080.78125 1549.730469 1076.070312 1550.839844 1071.589844 C 1551.960938 1067.109375 1553.589844 1062.960938 1555.75 1059.140625 C 1557.910156 1055.320312 1560.53125 1051.871094 1563.609375 1048.789062 C 1566.699219 1045.710938 1570.21875 1043.070312 1574.179688 1040.890625 C 1578.140625 1038.710938 1582.480469 1037.039062 1587.199219 1035.878906 C 1591.910156 1034.710938 1596.980469 1034.128906 1602.378906 1034.128906 C 1607.171875 1034.128906 1611.730469 1034.480469 1616.039062 1035.160156 C 1620.359375 1035.851562 1623.890625 1036.691406 1626.640625 1037.691406 L 1626.640625 1052.488281 C 1622.941406 1051.300781 1619.210938 1050.398438 1615.441406 1049.78125 C 1611.671875 1049.171875 1607.859375 1048.859375 1604.019531 1048.859375 C 1598.851562 1048.859375 1594.011719 1049.628906 1589.511719 1051.171875 C 1585 1052.710938 1581.101562 1054.988281 1577.808594 1058 C 1574.511719 1061.011719 1571.910156 1064.71875 1570.019531 1069.128906 C 1568.121094 1073.550781 1567.171875 1078.640625 1567.171875 1084.429688 C 1567.21875 1095.671875 1570.160156 1104.101562 1575.988281 1109.71875 C 1581.820312 1115.339844 1590.101562 1118.148438 1600.820312 1118.148438 C 1602.808594 1118.148438 1604.871094 1118.039062 1607.011719 1117.828125 C 1609.140625 1117.621094 1611.019531 1117.339844 1612.628906 1117.011719 L 1612.628906 1094.75 "/>
<path fill-rule="nonzero" fill="rgb(48.272705%, 47.331238%, 47.564697%)" fill-opacity="1" d="M 859.011719 1187.140625 C 859.011719 1186.410156 858.835938 1185.828125 858.480469 1185.378906 C 858.121094 1184.929688 857.640625 1184.558594 857.027344 1184.28125 C 856.414062 1183.988281 855.730469 1183.761719 854.96875 1183.578125 C 854.207031 1183.410156 853.40625 1183.230469 852.566406 1183.058594 C 851.457031 1182.820312 850.398438 1182.53125 849.386719 1182.199219 C 848.378906 1181.859375 847.488281 1181.398438 846.71875 1180.808594 C 845.949219 1180.21875 845.339844 1179.46875 844.882812 1178.558594 C 844.429688 1177.648438 844.199219 1176.511719 844.199219 1175.140625 C 844.199219 1173.640625 844.464844 1172.320312 844.992188 1171.210938 C 845.515625 1170.089844 846.230469 1169.160156 847.136719 1168.429688 C 848.039062 1167.699219 849.097656 1167.148438 850.316406 1166.789062 C 851.53125 1166.429688 852.902344 1166.238281 854.425781 1166.238281 C 855.945312 1166.238281 857.476562 1166.390625 859.011719 1166.691406 C 860.550781 1166.988281 861.871094 1167.371094 862.980469 1167.839844 L 862.980469 1172.328125 C 861.503906 1171.738281 860.082031 1171.320312 858.726562 1171.058594 C 857.367188 1170.789062 856.089844 1170.660156 854.894531 1170.660156 C 853.171875 1170.660156 851.84375 1170.96875 850.914062 1171.601562 C 849.980469 1172.230469 849.515625 1173.171875 849.515625 1174.421875 C 849.515625 1175.140625 849.667969 1175.738281 849.972656 1176.210938 C 850.28125 1176.679688 850.695312 1177.070312 851.222656 1177.371094 C 851.75 1177.679688 852.355469 1177.929688 853.035156 1178.109375 C 853.71875 1178.300781 854.445312 1178.46875 855.214844 1178.621094 C 856.421875 1178.878906 857.578125 1179.171875 858.683594 1179.511719 C 859.785156 1179.839844 860.761719 1180.308594 861.617188 1180.910156 C 862.46875 1181.5 863.144531 1182.28125 863.644531 1183.238281 C 864.140625 1184.199219 864.390625 1185.429688 864.390625 1186.921875 C 864.390625 1188.460938 864.105469 1189.789062 863.535156 1190.921875 C 862.96875 1192.039062 862.160156 1192.96875 861.113281 1193.699219 C 860.070312 1194.429688 858.800781 1194.980469 857.304688 1195.328125 C 855.8125 1195.691406 854.175781 1195.871094 852.398438 1195.871094 C 850.847656 1195.871094 849.320312 1195.710938 847.820312 1195.410156 C 846.316406 1195.101562 845.070312 1194.671875 844.074219 1194.121094 L 844.074219 1189.699219 C 845.480469 1190.308594 846.855469 1190.761719 848.191406 1191.03125 C 849.53125 1191.308594 850.910156 1191.449219 852.332031 1191.449219 C 853.15625 1191.449219 853.96875 1191.378906 854.765625 1191.25 C 855.5625 1191.109375 856.277344 1190.878906 856.910156 1190.550781 C 857.542969 1190.230469 858.050781 1189.78125 858.4375 1189.21875 C 858.820312 1188.660156 859.011719 1187.960938 859.011719 1187.140625 "/>
<path fill-rule="nonzero" fill="rgb(48.272705%, 47.331238%, 47.564697%)" fill-opacity="1" d="M 914.761719 1166.78125 L 914.761719 1190.960938 L 928.121094 1190.960938 L 928.121094 1195.328125 L 909.535156 1195.328125 L 909.535156 1166.78125 L 914.761719 1166.78125 "/>
<path fill-rule="nonzero" fill="rgb(48.272705%, 47.331238%, 47.564697%)" fill-opacity="1" d="M 991.8125 1181.058594 C 991.8125 1179.320312 991.597656 1177.800781 991.171875 1176.5 C 990.746094 1175.199219 990.15625 1174.109375 989.402344 1173.238281 C 988.648438 1172.378906 987.75 1171.730469 986.710938 1171.300781 C 985.671875 1170.878906 984.535156 1170.660156 983.296875 1170.660156 C 982.058594 1170.660156 980.921875 1170.878906 979.882812 1171.300781 C 978.84375 1171.730469 977.945312 1172.378906 977.191406 1173.238281 C 976.4375 1174.109375 975.847656 1175.199219 975.421875 1176.5 C 974.996094 1177.800781 974.78125 1179.320312 974.78125 1181.058594 C 974.78125 1182.789062 974.996094 1184.308594 975.421875 1185.609375 C 975.847656 1186.910156 976.4375 1188 977.191406 1188.859375 C 977.945312 1189.71875 978.84375 1190.359375 979.882812 1190.800781 C 980.921875 1191.230469 982.058594 1191.449219 983.296875 1191.449219 C 984.535156 1191.449219 985.671875 1191.230469 986.710938 1190.800781 C 987.75 1190.359375 988.648438 1189.71875 989.402344 1188.859375 C 990.15625 1188 990.746094 1186.910156 991.171875 1185.609375 C 991.597656 1184.308594 991.8125 1182.789062 991.8125 1181.058594 Z M 997.210938 1181.058594 C 997.210938 1183.230469 996.902344 1185.230469 996.285156 1187.039062 C 995.664062 1188.859375 994.761719 1190.421875 993.574219 1191.730469 C 992.386719 1193.039062 990.925781 1194.050781 989.199219 1194.78125 C 987.46875 1195.5 985.503906 1195.871094 983.296875 1195.871094 C 981.09375 1195.871094 979.125 1195.5 977.394531 1194.78125 C 975.667969 1194.050781 974.210938 1193.039062 973.019531 1191.730469 C 971.832031 1190.421875 970.929688 1188.859375 970.3125 1187.039062 C 969.691406 1185.230469 969.382812 1183.230469 969.382812 1181.058594 C 969.382812 1178.878906 969.691406 1176.878906 970.3125 1175.070312 C 970.929688 1173.25 971.832031 1171.691406 973.019531 1170.378906 C 974.210938 1169.078125 975.667969 1168.058594 977.394531 1167.328125 C 979.125 1166.609375 981.09375 1166.238281 983.296875 1166.238281 C 985.503906 1166.238281 987.46875 1166.609375 989.199219 1167.328125 C 990.925781 1168.058594 992.386719 1169.078125 993.574219 1170.378906 C 994.761719 1171.691406 995.664062 1173.25 996.285156 1175.070312 C 996.902344 1176.878906 997.210938 1178.878906 997.210938 1181.058594 "/>
<path fill-rule="nonzero" fill="rgb(48.272705%, 47.331238%, 47.564697%)" fill-opacity="1" d="M 1059.859375 1184.429688 L 1053.449219 1184.429688 L 1053.449219 1180.050781 L 1065.078125 1180.050781 L 1065.078125 1194.460938 C 1064.660156 1194.609375 1064.109375 1194.78125 1063.449219 1194.949219 C 1062.789062 1195.121094 1062.050781 1195.269531 1061.230469 1195.410156 C 1060.410156 1195.539062 1059.570312 1195.648438 1058.699219 1195.738281 C 1057.839844 1195.820312 1056.96875 1195.871094 1056.121094 1195.871094 C 1053.558594 1195.871094 1051.320312 1195.519531 1049.410156 1194.828125 C 1047.5 1194.140625 1045.898438 1193.171875 1044.628906 1191.921875 C 1043.351562 1190.671875 1042.398438 1189.179688 1041.769531 1187.449219 C 1041.140625 1185.71875 1040.820312 1183.808594 1040.820312 1181.71875 C 1040.820312 1180.238281 1040.988281 1178.820312 1041.320312 1177.480469 C 1041.648438 1176.140625 1042.148438 1174.890625 1042.789062 1173.75 C 1043.441406 1172.601562 1044.230469 1171.570312 1045.148438 1170.640625 C 1046.078125 1169.71875 1047.128906 1168.929688 1048.320312 1168.269531 C 1049.511719 1167.621094 1050.808594 1167.121094 1052.230469 1166.769531 C 1053.640625 1166.421875 1055.160156 1166.238281 1056.78125 1166.238281 C 1058.21875 1166.238281 1059.589844 1166.351562 1060.878906 1166.550781 C 1062.179688 1166.761719 1063.238281 1167.011719 1064.058594 1167.308594 L 1064.058594 1171.75 C 1062.949219 1171.390625 1061.828125 1171.121094 1060.699219 1170.941406 C 1059.570312 1170.75 1058.429688 1170.660156 1057.269531 1170.660156 C 1055.71875 1170.660156 1054.269531 1170.890625 1052.921875 1171.359375 C 1051.570312 1171.820312 1050.398438 1172.5 1049.410156 1173.398438 C 1048.421875 1174.308594 1047.640625 1175.421875 1047.070312 1176.738281 C 1046.5 1178.070312 1046.21875 1179.601562 1046.21875 1181.328125 C 1046.230469 1184.699219 1047.109375 1187.230469 1048.859375 1188.921875 C 1050.609375 1190.609375 1053.101562 1191.449219 1056.308594 1191.449219 C 1056.910156 1191.449219 1057.53125 1191.421875 1058.171875 1191.351562 C 1058.808594 1191.289062 1059.371094 1191.210938 1059.859375 1191.109375 L 1059.859375 1184.429688 "/>
<path fill-rule="nonzero" fill="rgb(48.272705%, 47.331238%, 47.564697%)" fill-opacity="1" d="M 1121.75 1173.648438 C 1120.75 1176.640625 1119.859375 1179.128906 1119.078125 1181.140625 L 1118.109375 1183.679688 L 1125.488281 1183.679688 L 1124.511719 1181.140625 C 1123.738281 1179.121094 1122.851562 1176.621094 1121.839844 1173.648438 Z M 1127.171875 1188.058594 L 1116.421875 1188.058594 L 1113.621094 1195.328125 L 1108.050781 1195.328125 L 1119.378906 1166.78125 L 1124.160156 1166.78125 L 1135.5 1195.328125 L 1129.96875 1195.328125 L 1127.171875 1188.058594 "/>
<path fill-rule="nonzero" fill="rgb(48.272705%, 47.331238%, 47.564697%)" fill-opacity="1" d="M 1193.769531 1180.050781 C 1195.808594 1182.96875 1197.480469 1185.558594 1198.761719 1187.820312 L 1198.890625 1187.820312 C 1198.71875 1184.109375 1198.628906 1181.398438 1198.628906 1179.710938 L 1198.628906 1166.78125 L 1203.859375 1166.78125 L 1203.859375 1195.328125 L 1198.378906 1195.328125 L 1189.070312 1182.191406 C 1187.429688 1179.910156 1185.738281 1177.269531 1183.988281 1174.269531 L 1183.859375 1174.269531 C 1184.03125 1177.769531 1184.121094 1180.480469 1184.121094 1182.398438 L 1184.121094 1195.328125 L 1178.890625 1195.328125 L 1178.890625 1166.78125 L 1184.378906 1166.78125 L 1193.769531 1180.050781 "/>
<path fill-rule="nonzero" fill="rgb(48.272705%, 47.331238%, 47.564697%)" fill-opacity="1" d="M 1303.601562 1178.539062 L 1316.828125 1178.539062 L 1316.828125 1166.78125 L 1322.058594 1166.78125 L 1322.058594 1195.328125 L 1316.828125 1195.328125 L 1316.828125 1182.910156 L 1303.601562 1182.910156 L 1303.601562 1195.328125 L 1298.371094 1195.328125 L 1298.371094 1166.78125 L 1303.601562 1166.78125 L 1303.601562 1178.539062 "/>
<path fill-rule="nonzero" fill="rgb(48.272705%, 47.331238%, 47.564697%)" fill-opacity="1" d="M 1373.460938 1190.960938 L 1387.5 1190.960938 L 1387.5 1195.328125 L 1368.230469 1195.328125 L 1368.230469 1166.78125 L 1386.730469 1166.78125 L 1386.730469 1171.148438 L 1373.460938 1171.148438 L 1373.460938 1178.539062 L 1384.859375 1178.539062 L 1384.859375 1182.910156 L 1373.460938 1182.910156 L 1373.460938 1190.960938 "/>
<path fill-rule="nonzero" fill="rgb(48.272705%, 47.331238%, 47.564697%)" fill-opacity="1" d="M 1440.199219 1179.898438 C 1441.398438 1179.898438 1442.410156 1179.851562 1443.238281 1179.738281 C 1444.070312 1179.640625 1444.769531 1179.480469 1445.339844 1179.261719 C 1446.398438 1178.859375 1447.128906 1178.320312 1447.53125 1177.628906 C 1447.941406 1176.941406 1448.140625 1176.148438 1448.140625 1175.25 C 1448.140625 1174.480469 1447.980469 1173.800781 1447.660156 1173.210938 C 1447.339844 1172.621094 1446.800781 1172.160156 1446.03125 1171.808594 C 1445.53125 1171.589844 1444.898438 1171.421875 1444.148438 1171.308594 C 1443.390625 1171.210938 1442.460938 1171.148438 1441.351562 1171.148438 L 1437.621094 1171.148438 L 1437.621094 1179.898438 Z M 1453.519531 1175.359375 C 1453.519531 1177.351562 1452.96875 1179.039062 1451.859375 1180.429688 C 1450.761719 1181.808594 1449.058594 1182.839844 1446.75 1183.511719 L 1446.75 1183.589844 L 1455.25 1195.328125 L 1448.96875 1195.328125 L 1441.199219 1184.28125 L 1437.621094 1184.28125 L 1437.621094 1195.328125 L 1432.390625 1195.328125 L 1432.390625 1166.78125 L 1441.078125 1166.78125 C 1442.511719 1166.78125 1443.851562 1166.859375 1445.089844 1167.019531 C 1446.328125 1167.191406 1447.390625 1167.429688 1448.269531 1167.761719 C 1449.949219 1168.398438 1451.238281 1169.351562 1452.148438 1170.609375 C 1453.058594 1171.871094 1453.519531 1173.449219 1453.519531 1175.359375 "/>
<path fill-rule="nonzero" fill="rgb(48.272705%, 47.331238%, 47.564697%)" fill-opacity="1" d="M 1504.398438 1190.960938 L 1518.449219 1190.960938 L 1518.449219 1195.328125 L 1499.171875 1195.328125 L 1499.171875 1166.78125 L 1517.679688 1166.78125 L 1517.679688 1171.148438 L 1504.398438 1171.148438 L 1504.398438 1178.539062 L 1515.800781 1178.539062 L 1515.800781 1182.910156 L 1504.398438 1182.910156 L 1504.398438 1190.960938 "/>
</svg>
